<svg xmlns="http://www.w3.org/2000/svg" version="1.1" xmlns:xlink="http://www.w3.org/1999/xlink" xmlns:svgjs="http://svgjs.dev/svgjs" width="1000" height="623" viewBox="0 0 1000 623"><g transform="matrix(1,0,0,1,-0.6060606060606233,0.2522267206477409)"><svg viewBox="0 0 396 247" data-background-color="#111111" preserveAspectRatio="xMidYMid meet" height="623" width="1000" xmlns="http://www.w3.org/2000/svg" xmlns:xlink="http://www.w3.org/1999/xlink"><defs></defs><g id="tight-bounds" transform="matrix(1,0,0,1,0.2400000000000091,-0.09999999999999432)"><svg viewBox="0 0 395.52 247.2" height="247.2" width="395.52"><g><svg></svg></g><g><svg viewBox="0 0 395.52 247.2" height="247.2" width="395.52"><g transform="matrix(2.716115025034339, 0, 0, 2.716115025034339, 120.05738136381761, 0.9999999999999858)"><svg xmlns="http://www.w3.org/2000/svg" xmlns:xlink="http://www.w3.org/1999/xlink" version="1.1" x="0" y="0" viewBox="21.391999999999996 4.862 57.21600000000001 90.27600000000001" enable-background="new 0 0 100 100" xml:space="preserve" height="90.27600000000001" width="57.21600000000001" class="icon-none" data-fill-palette-color="accent" id="none"><g fill="#ffffff" data-fill-palette-color="accent"><path fill="#ffffff" d="M78.608 73.621c-0.031-0.084-0.07-0.167-0.104-0.251V6.735c0-1.033-0.84-1.873-1.873-1.873H23.426c-1.033 0-1.873 0.84-1.873 1.873v55.439l-0.007 0.008c0.002 0.002 0.005 0.004 0.007 0.007v6.797l-0.161 0.036c0.04 0.183 0.109 0.333 0.161 0.502v23.725c0 1.033 0.84 1.873 1.873 1.873h12.452l0.012 0.016c0.006-0.005 0.013-0.011 0.021-0.016h40.721c1.033 0 1.873-0.84 1.873-1.873v-19.59L78.608 73.621zM77.418 22.064c-0.725-3.839-2.599-7.704-4.315-11.243C72.272 9.11 71.49 7.482 70.87 5.95h1.006c0.804 2.206 2.349 4.069 3.853 5.869 0.572 0.686 1.158 1.394 1.689 2.102V22.064zM77.418 62.546c-0.181-0.276-0.363-0.556-0.557-0.847-1.715-2.59-3.85-5.813-3.85-8.557 0-2.193 2.465-4.249 4.406-5.795V62.546zM77.418 45.957l-0.405 0.323c-2.147 1.707-5.088 4.042-5.088 6.863 0 3.07 2.234 6.446 4.029 9.156 0.48 0.726 0.932 1.407 1.304 2.026l0.16-0.096v6.84c-0.978-1.793-2.195-3.545-3.392-5.256-3.48-4.977-6.768-9.676-4.577-15.228 1.016-2.74 2.525-4.801 4.125-6.983l0.543-0.743c0.433-0.577 0.913-1.127 1.422-1.708 0.649-0.742 1.301-1.51 1.879-2.349V45.957zM77.418 6.735v5.421c-0.285-0.35-0.571-0.696-0.855-1.034C75.209 9.5 73.82 7.826 73.042 5.95h3.59C77.065 5.95 77.418 6.302 77.418 6.735zM61.47 5.95h4.188c0.403 1.312 1 2.608 1.578 3.861 0.61 1.32 1.239 2.684 1.642 4.061 0.226 0.867 0.517 1.746 0.823 2.675 0.63 1.906 1.28 3.876 1.357 5.775 0.032 0.635 0.018 0.957-0.006 1.119-0.206-0.081-0.553-0.268-0.911-0.46-2.403-1.421-3.735-3.388-4.987-5.89-0.169-0.365-0.358-0.767-0.563-1.194C63.237 13.049 61.252 8.836 61.47 5.95zM65.163 74.201c1.331 1.577 2.589 3.065 3.681 4.618 2.82 3.966 5.741 9.954 5.803 15.215h-1.268c-0.992-2.786-6.321-14.903-10.323-15.874-0.812-0.197-1.552 0.034-2.15 0.671-2.9 3.154-2.196 7.396-1.576 11.139 0.239 1.435 0.454 2.796 0.493 4.064H49.517c0.124-0.239 0.271-0.506 0.412-0.76 0.277-0.498 0.563-1.014 0.781-1.503 0.463-1.182 0.872-2.393 1.265-3.562 0.687-2.036 1.396-4.144 2.416-6.111 2.944-5.97 1.646-11.402 0.27-17.152-0.608-2.542-1.236-5.17-1.487-7.885-0.372-4.408 2.264-7.7 5.055-11.185 2.184-2.728 4.442-5.548 5.229-9.004 1.53-6.714-1.69-12.734-5.394-18.227-1.812-2.832-3.687-5.761-5.31-8.772-0.821-1.409-1.548-2.499-2.629-3.58-0.117-0.117-0.199-0.232-0.282-0.344h6.948c-0.274 2.621 1.807 6.314 3.368 9.078 0.399 0.706 0.756 1.336 1.008 1.84 0.907 1.812 1.583 3.711 2.299 5.72 0.532 1.492 1.082 3.035 1.733 4.535 1.424 3.505 2.035 6.423 0.686 10.134-0.632 1.724-1.58 3.139-2.584 4.637-0.943 1.408-1.919 2.864-2.609 4.589-1.221 2.848-2.783 7.567-3.165 11.511C57.077 64.623 61.188 69.492 65.163 74.201zM64.214 88.842c0.744 1.305 1.318 2.831 1.877 4.317 0.111 0.298 0.225 0.583 0.337 0.875H64.22C63.724 92.593 63.738 90.458 64.214 88.842zM67.109 92.777c-0.716-1.904-1.456-3.871-2.569-5.448l-0.523-0.742-0.407 0.812c-0.901 1.801-1.099 4.6-0.521 6.635h-2.18c-0.038-1.349-0.261-2.759-0.508-4.242-0.607-3.668-1.236-7.461 1.3-10.221 0.329-0.351 0.667-0.456 1.099-0.354 3.115 0.755 8.152 11.326 9.432 14.817h-4.64C67.43 93.62 67.27 93.204 67.109 92.777zM41.507 6.606c0.929 1.363 2.483 3.646 2.001 4.772-0.167 0.392-0.63 0.654-1.376 0.778-2.534 0.426-6.47-3.7-7.622-6.207h6.558C41.201 6.15 41.341 6.362 41.507 6.606zM22.641 36.043c1.581 2.215 3.561 4.16 5.491 6.046 2.753 2.689 5.599 5.471 7.171 8.982 0.603 1.424 0.514 2.004 0.366 2.122-0.381 0.306-2.067-0.261-3.901-1.571-2.767-1.844-6.591-4.875-9.126-7.904V36.043zM22.641 45.367c2.562 2.786 5.979 5.464 8.509 7.15 0.503 0.359 2.66 1.832 4.203 1.832 0.38 0 0.724-0.09 0.996-0.308 1.04-0.833 0.224-2.761-0.049-3.404-1.66-3.711-4.582-6.566-7.408-9.327-2.268-2.215-4.612-4.506-6.221-7.188l-0.03 0.018v-8.599c2.147 4.183 5.744 8.623 8.993 12.615 1.362 1.673 2.649 3.254 3.739 4.707 3.386 4.404 5.279 8.822 6.136 14.31 0.033 0.26 0.083 0.582 0.14 0.939 0.214 1.355 0.573 3.623 0.073 4.504-0.751 1.761-2.326 1.404-4.83 0.681l-0.401-0.115c-4.589-1.477-7.955-4.738-11.547-8.506-0.278-0.334-0.557-0.65-0.83-0.96-0.535-0.609-1.037-1.19-1.473-1.822V45.367zM23.297 54.435c0.267 0.303 0.54 0.612 0.834 0.965 3.721 3.904 7.193 7.263 12.043 8.823l0.414 0.119c1.077 0.312 2.219 0.642 3.25 0.642 1.197 0 2.241-0.444 2.855-1.883 0.66-1.156 0.294-3.469 0.028-5.157-0.054-0.345-0.103-0.654-0.137-0.922-0.889-5.693-2.848-10.264-6.346-14.815-1.099-1.464-2.393-3.053-3.761-4.736-3.781-4.645-8.057-9.905-9.837-14.539v-8.4c1.282 2.827 3.459 5.714 5.591 8.533 1.631 2.16 3.172 4.199 4.136 6.006 0.928 1.856 1.894 3.692 2.86 5.529 1.89 3.59 3.843 7.302 5.454 11.096 0.648 1.528 6.234 15.099 2.802 20.911-0.857 1.452-2.196 2.254-4.094 2.45-6.921 0.736-13.339-4.137-16.749-7.338v-8.048C22.855 53.925 23.071 54.178 23.297 54.435zM37.985 70.218c0.501 0 1.009-0.025 1.517-0.08 2.232-0.23 3.887-1.232 4.917-2.979 3.703-6.271-2.068-20.308-2.738-21.888-1.628-3.836-3.591-7.569-5.491-11.178-0.963-1.83-1.926-3.66-2.857-5.522-1.011-1.894-2.577-3.967-4.235-6.162-2.958-3.915-6.016-7.964-6.458-11.605V6.735c0-0.433 0.353-0.786 0.786-0.786h3.503c5.578 2.794 7.582 11.073 8.908 16.564l0.129 0.538c0.33 1.417 0.609 2.796 0.881 4.14 1.191 5.881 2.219 10.961 6.522 15.694 3.795 4.445 4.028 10.372 4.254 16.104 0.126 3.203 0.257 6.515 1.009 9.521 1.508 6.201-1.021 10.049-4.757 14.805-0.844 1.069-1.714 2.342-2.634 3.69-1.851 2.71-3.765 5.494-5.715 7.028H29.76c0.509-1.242 0.803-2.508 1.077-3.739 0.23-1.042 0.448-2.026 0.79-2.984 0.329-0.877 0.883-1.684 1.471-2.537 1.194-1.738 2.431-3.537 1.662-5.969-1.018-3.244-3.833-4.273-6.556-5.268-2.438-0.893-4.73-1.758-5.563-4.177v-6.168C26.063 66.243 31.718 70.218 37.985 70.218zM22.641 80.479c0.521 0.189 1.013 0.314 1.434 0.417 1.369 0.332 1.83 0.444 1.651 1.967-0.226 1.282-1.175 2.742-2.092 4.153-0.349 0.538-0.688 1.065-0.993 1.583V80.479zM22.641 93.249v-1.508c-0.063-1.101 0.935-2.642 1.904-4.132 0.977-1.503 1.987-3.058 2.255-4.588 0.296-2.51-1.109-2.852-2.468-3.182-0.518-0.126-1.096-0.274-1.691-0.532v-7.739c1.288 1.537 3.253 2.281 5.189 2.99 2.588 0.945 5.034 1.84 5.893 4.572 0.608 1.927-0.379 3.363-1.521 5.026-0.598 0.871-1.216 1.771-1.595 2.78-0.368 1.029-0.604 2.094-0.831 3.122-0.294 1.325-0.609 2.69-1.199 3.975h-5.15C22.993 94.034 22.641 93.682 22.641 93.249zM42.139 87.62c0.91-1.333 1.77-2.591 2.592-3.633 3.8-4.838 6.58-9.069 4.959-15.736-0.726-2.901-0.855-6.155-0.979-9.303-0.233-5.918-0.475-12.037-4.525-16.781-4.112-4.522-5.113-9.466-6.272-15.192-0.274-1.354-0.555-2.743-0.888-4.175l-0.132-0.541c-1.248-5.168-3.081-12.706-7.924-16.31h4.364c1 2.702 5.176 7.321 8.448 7.321 0.18 0 0.357-0.014 0.53-0.042 1.135-0.189 1.875-0.668 2.197-1.423 0.715-1.673-0.912-4.066-2.102-5.812-0.011-0.016-0.018-0.028-0.03-0.043h6.036l-0.031 0.076c0.22 0.088 0.325 0.222 0.524 0.493 0.127 0.174 0.265 0.358 0.449 0.544 1.002 1.002 1.661 1.991 2.449 3.341 1.634 3.033 3.52 5.979 5.349 8.838 3.573 5.302 6.682 11.077 5.242 17.388-0.73 3.213-2.91 5.936-5.017 8.567-2.802 3.498-5.698 7.115-5.289 11.959 0.258 2.797 0.896 5.464 1.513 8.043 1.329 5.555 2.584 10.8-0.183 16.408-1.053 2.033-1.776 4.18-2.475 6.256-0.391 1.158-0.794 2.354-1.239 3.49-0.192 0.432-0.467 0.926-0.728 1.394-0.305 0.549-0.524 0.956-0.664 1.288H37.17C38.896 92.354 40.54 89.961 42.139 87.62zM77.418 93.249c0 0.433-0.353 0.785-0.786 0.785h-0.898c-0.063-5.521-3.085-11.741-6.002-15.844-1.118-1.588-2.45-3.165-3.737-4.689-3.836-4.545-7.802-9.244-7.385-15.417 0.367-3.805 1.89-8.396 3.086-11.185 0.652-1.631 1.596-3.039 2.508-4.4 0.996-1.485 2.025-3.022 2.702-4.87 1.469-4.039 0.821-7.171-0.705-10.927-0.641-1.479-1.185-3.005-1.71-4.48-0.696-1.952-1.415-3.969-2.352-5.841-0.259-0.519-0.623-1.164-1.033-1.889-1.435-2.538-3.557-6.297-3.226-8.542h2.474c-0.185 3.18 1.867 7.494 3.255 10.412 0.202 0.425 0.391 0.822 0.565 1.2 1.345 2.688 2.78 4.798 5.415 6.355l0.108 0.059c0.646 0.348 1.109 0.599 1.507 0.599 0.162 0 0.314-0.042 0.463-0.136 0.483-0.306 0.539-0.973 0.477-2.168-0.082-2.044-0.758-4.088-1.411-6.065-0.302-0.912-0.586-1.775-0.807-2.624-0.43-1.469-1.077-2.87-1.702-4.226-0.54-1.167-1.044-2.275-1.419-3.405h2.896c0.656 1.686 1.511 3.466 2.422 5.346 2.426 4.998 5.174 10.664 4.377 15.765-0.684 4.185-3.1 7.429-5.657 10.863-0.787 1.057-1.602 2.15-2.354 3.265-5.142 7.642-6.409 14.465-3.87 20.861 1.34 3.353 3.535 6.337 5.657 9.225 1.213 1.649 2.468 3.356 3.518 5.076 2.304 3.906 3.625 9.498 3.625 15.339V93.249zM74.725 75.791c-1.077-1.767-2.347-3.492-3.573-5.162-2.082-2.831-4.234-5.76-5.523-8.981-2.396-6.037-1.165-12.53 3.763-19.851 0.738-1.094 1.545-2.176 2.324-3.223 2.385-3.203 4.827-6.519 5.703-10.63v8.679c-0.639 1.451-1.683 2.653-2.697 3.814-0.499 0.57-1.017 1.161-1.479 1.777l-0.545 0.747c-1.646 2.245-3.199 4.365-4.263 7.237-2.402 6.085 1.208 11.247 4.7 16.239 1.626 2.327 3.298 4.729 4.283 7.149v8.966C76.85 80.29 75.999 77.951 74.725 75.791z" data-fill-palette-color="accent"></path><path fill="#ffffff" d="M52.211 43.146c1.936 0 3.702-1.219 4.728-3.268 1.893-3.912 0.897-7.961-0.32-11.392-1.042-3.223-3.483-10.771-8.831-10.902l-0.258-0.003c-2.575 0-4.212 1.001-4.988 3.016-1.416 2.83-0.297 7.083 0.443 9.896l0.105 0.399c1.284 4.283 3.408 10.164 7.013 11.793C50.805 42.991 51.515 43.146 52.211 43.146 52.21 43.146 52.21 43.146 52.211 43.146zM50.542 41.691c-3.562-1.609-5.633-8.513-6.407-11.093l-0.1-0.382c-0.699-2.656-1.753-6.669-0.5-9.181 0.632-1.637 1.863-2.367 3.994-2.367l0.23 0.003c4.579 0.113 6.853 7.146 7.83 10.164 1.147 3.233 2.089 7.018 0.373 10.563C54.829 41.664 52.65 42.606 50.542 41.691z" data-fill-palette-color="accent"></path><path fill="#ffffff" d="M48.446 25.705c-0.271 0-0.929 0.104-1.186 1.032-0.562 1.59 0.746 6.269 2.415 8.632 0.7 0.993 1.416 1.496 2.124 1.496 0.001 0 0.001 0 0.001 0 0.743 0 1.364-0.527 1.846-1.563 0.734-1.576-0.513-4.503-1.805-6.531C51.254 27.849 49.749 25.705 48.446 25.705zM52.66 34.843c-0.163 0.35-0.49 0.935-0.86 0.935-0.151 0-0.576-0.101-1.237-1.035-1.539-2.179-2.689-6.48-2.266-7.678 0.055-0.197 0.118-0.262 0.149-0.272 0.327 0 1.288 0.697 2.478 2.563C52.337 31.575 53.084 33.933 52.66 34.843z" data-fill-palette-color="accent"></path><path fill="#ffffff" d="M38.616 79.869c1.37 0 3.688-1.679 3.804-3.073 0.031-0.368-0.054-1.249-1.532-1.494-1.442-0.142-2.889 1.095-3.405 2.289-0.325 0.754-0.26 1.454 0.206 1.947C37.853 79.689 38.146 79.869 38.616 79.869zM38.481 78.021c0.336-0.776 1.313-1.644 2.179-1.644 0.042 0 0.079 0.001 0.085 0.001 0.228 0.039 0.608 0.131 0.592 0.327-0.062 0.737-1.815 2.076-2.721 2.076-0.089 0-0.16-0.016-0.162-0.016C38.272 78.573 38.412 78.182 38.481 78.021z" data-fill-palette-color="accent"></path></g></svg><g></g></g><rect width="348.05760000000004" height="29.12588437702468" fill="#111111" y="109.03705781148766" x="23.731199999999973" data-fill-palette-color="quaternary"></rect><g transform="matrix(1,0,0,1,39.55199999999999,113.70771836840737)"><svg viewBox="0 0 316.416 19.78456326318524" height="19.78456326318524" width="316.416"><g><svg viewBox="0 0 316.416 19.78456326318524" height="19.78456326318524" width="316.416"><g><svg viewBox="0 0 316.416 19.78456326318524" height="19.78456326318524" width="316.416"><g><svg viewBox="0 0 316.416 19.78456326318524" height="19.78456326318524" width="316.416"><g><svg viewBox="0 0 316.416 19.78456326318524" height="19.78456326318524" width="316.416"><g><svg viewBox="0 0 316.416 19.78456326318524" height="19.78456326318524" width="316.416"><g transform="matrix(1,0,0,1,0,0)"><svg width="316.416" viewBox="2.25 -35.5 577.31 36.1" height="19.78456326318524" data-palette-color="#ffffff"><path d="M2.25 0L2.25-3 5.8-3 5.8-31.9 2.25-31.9 2.25-34.9 19.9-34.9Q22.65-34.9 24.73-34.27 26.8-33.65 28.15-32.58 29.5-31.5 30.18-30 30.85-28.5 30.85-26.7L30.85-26.7Q30.85-24.85 30.25-23.45 29.65-22.05 28.63-21.05 27.6-20.05 26.3-19.43 25-18.8 23.6-18.5L23.6-18.5 23.6-18.25Q25.05-18.1 26.6-17.53 28.15-16.95 29.4-15.9 30.65-14.85 31.45-13.3 32.25-11.75 32.25-9.7L32.25-9.7Q32.25-5.1 29.38-2.55 26.5 0 21.05 0L21.05 0 2.25 0ZM12.8-16.3L12.8-3.25 19.25-3.25Q22.05-3.25 23.55-4.67 25.05-6.1 25.05-8.65L25.05-8.65 25.05-10.9Q25.05-13.45 23.55-14.88 22.05-16.3 19.25-16.3L19.25-16.3 12.8-16.3ZM12.8-31.65L12.8-19.55 18.4-19.55Q21-19.55 22.33-20.83 23.65-22.1 23.65-24.5L23.65-24.5 23.65-26.7Q23.65-29.1 22.33-30.38 21-31.65 18.4-31.65L18.4-31.65 12.8-31.65ZM53.4-2.8L53.4-2.8Q55.25-2.8 56.77-3.43 58.3-4.05 59.42-5.28 60.55-6.5 61.17-8.35 61.8-10.2 61.8-12.65L61.8-12.65 61.8-22.25Q61.8-24.7 61.17-26.53 60.55-28.35 59.42-29.6 58.3-30.85 56.77-31.48 55.25-32.1 53.4-32.1L53.4-32.1Q51.55-32.1 50.02-31.48 48.5-30.85 47.37-29.6 46.25-28.35 45.62-26.53 45-24.7 45-22.25L45-22.25 45-12.65Q45-10.2 45.62-8.35 46.25-6.5 47.37-5.28 48.5-4.05 50.02-3.43 51.55-2.8 53.4-2.8ZM53.4 0.6L53.4 0.6Q49.9 0.6 46.95-0.6 44-1.8 41.85-4.13 39.7-6.45 38.5-9.8 37.3-13.15 37.3-17.45L37.3-17.45Q37.3-21.75 38.5-25.1 39.7-28.45 41.85-30.78 44-33.1 46.95-34.3 49.9-35.5 53.4-35.5L53.4-35.5Q56.9-35.5 59.85-34.3 62.8-33.1 64.95-30.78 67.1-28.45 68.3-25.1 69.5-21.75 69.5-17.45L69.5-17.45Q69.5-13.15 68.3-9.8 67.1-6.45 64.95-4.13 62.8-1.8 59.85-0.6 56.9 0.6 53.4 0.6ZM71.34 0L71.34-3 73.89-3 84.89-34.9 91.14-34.9 102.14-3 104.69-3 104.69 0 90.84 0 90.84-3 95-3 92.39-10.85 80.34-10.85 77.74-3 81.89-3 81.89 0 71.34 0ZM86.25-29.5L81.25-14 91.5-14 86.5-29.5 86.25-29.5ZM107.89 0L107.89-3.2 126.79-31.65 113.69-31.65 113.69-25.85 108.54-25.85 108.54-34.9 134.74-34.9 134.74-31.7 115.84-3.25 130.09-3.25 130.09-9.85 135.24-9.85 135.24 0 107.89 0ZM140.04 0L140.04-3 143.59-3 143.59-31.9 140.04-31.9 140.04-34.9 167.29-34.9 167.29-25.85 162.14-25.85 162.14-31.65 150.59-31.65 150.59-19.75 158.19-19.75 158.19-23.05 161.64-23.05 161.64-13.2 158.19-13.2 158.19-16.5 150.59-16.5 150.59-3.25 162.54-3.25 162.54-9.85 167.69-9.85 167.69 0 140.04 0ZM172.64 0L172.64-3 176.19-3 176.19-31.9 172.64-31.9 172.64-34.9 191.29-34.9Q193.59-34.9 195.49-34.38 197.39-33.85 198.76-32.75 200.14-31.65 200.89-29.95 201.64-28.25 201.64-25.95L201.64-25.95Q201.64-22.35 199.49-20 197.34-17.65 193.94-16.95L193.94-16.95 200.24-6.1Q201.24-4.35 202.34-3.68 203.44-3 205.14-3L205.14-3 205.44-3 205.44 0 201.19 0Q199.54 0 198.31-0.28 197.09-0.55 196.16-1.15 195.24-1.75 194.54-2.65 193.84-3.55 193.19-4.75L193.19-4.75 187.59-15.65 183.19-15.65 183.19-3 186.74-3 186.74 0 172.64 0ZM183.19-31.65L183.19-18.75 189.04-18.75Q191.69-18.75 193.06-20.05 194.44-21.35 194.44-23.8L194.44-23.8 194.44-26.6Q194.44-29.05 193.06-30.35 191.69-31.65 189.04-31.65L189.04-31.65 183.19-31.65ZM208.44 0L208.44-3 211.99-3 211.99-31.9 208.44-31.9 208.44-34.9 222.53-34.9 222.53-31.9 218.99-31.9 218.99-3 222.53-3 222.53 0 208.44 0ZM227.03 0L227.03-3 230.58-3 230.58-31.9 227.03-31.9 227.03-34.9 254.28-34.9 254.28-25.85 249.13-25.85 249.13-31.65 237.58-31.65 237.58-19.75 245.18-19.75 245.18-23.05 248.63-23.05 248.63-13.2 245.18-13.2 245.18-16.5 237.58-16.5 237.58-3.25 249.53-3.25 249.53-9.85 254.68-9.85 254.68 0 227.03 0ZM269.68 0L269.68-3 272.23-3 283.23-34.9 289.48-34.9 300.48-3 303.03-3 303.03 0 289.18 0 289.18-3 293.33-3 290.73-10.85 278.68-10.85 276.08-3 280.23-3 280.23 0 269.68 0ZM284.58-29.5L279.58-14 289.83-14 284.83-29.5 284.58-29.5ZM305.98 0L305.98-3 309.53-3 309.53-31.9 305.98-31.9 305.98-34.9 317.98-34.9 333.58-9.1 333.83-9.1 333.83-31.9 330.28-31.9 330.28-34.9 340.98-34.9 340.98-31.9 337.43-31.9 337.43 0 331.28 0 313.38-29.35 313.13-29.35 313.13-3 316.68-3 316.68 0 305.98 0ZM360.87 0.6L360.87 0.6Q357.47 0.6 354.67-0.65 351.87-1.9 349.87-4.23 347.87-6.55 346.75-9.88 345.62-13.2 345.62-17.4L345.62-17.4Q345.62-21.8 346.82-25.18 348.02-28.55 350.17-30.85 352.32-33.15 355.22-34.33 358.12-35.5 361.52-35.5L361.52-35.5Q365.17-35.5 367.25-34.38 369.32-33.25 369.97-31.95L369.97-31.95 370.22-31.95 370.22-34.9 375.37-34.9 375.37-24.05 370.22-24.05 370.22-26.35Q370.22-29 368.4-30.53 366.57-32.05 362.82-32.05L362.82-32.05Q357.97-32.05 355.65-29.43 353.32-26.8 353.32-21.7L353.32-21.7 353.32-13.1Q353.32-8.3 355.55-5.7 357.77-3.1 361.67-3.1L361.67-3.1Q365.27-3.1 367.17-4.9 369.07-6.7 369.07-9.7L369.07-9.7 369.07-14.35 363.72-14.35 363.72-17.4 378.77-17.4 378.77-14.35 376.02-14.35 376.02 0 373.57 0 370.72-4.95 370.47-4.95Q370.17-4.05 369.37-3.08 368.57-2.1 367.32-1.28 366.07-0.45 364.45 0.08 362.82 0.6 360.87 0.6ZM383.27 0L383.27-3 386.82-3 386.82-31.9 383.27-31.9 383.27-34.9 397.37-34.9 397.37-31.9 393.82-31.9 393.82-3 397.37-3 397.37 0 383.27 0ZM401.87 0L401.87-3 405.42-3 405.42-31.9 401.87-31.9 401.87-34.9 429.12-34.9 429.12-25.85 423.97-25.85 423.97-31.65 412.42-31.65 412.42-19.75 420.02-19.75 420.02-23.05 423.47-23.05 423.47-13.2 420.02-13.2 420.02-16.5 412.42-16.5 412.42-3.25 424.37-3.25 424.37-9.85 429.52-9.85 429.52 0 401.87 0ZM434.47 0L434.47-3 438.02-3 438.02-31.9 434.47-31.9 434.47-34.9 448.77-34.9 448.77-31.9 445.02-31.9 445.02-3.25 455.52-3.25 455.52-9.85 460.67-9.85 460.67 0 434.47 0ZM478.41 0.6L478.41 0.6Q475.31 0.6 473.44-0.53 471.56-1.65 470.86-2.95L470.86-2.95 470.66-2.95 470.66 0 465.51 0 465.51-10.2 470.66-10.2 470.66-8Q470.66-2.8 477.86-2.8L477.86-2.8Q481.56-2.8 483.31-4.3 485.06-5.8 485.06-8.35L485.06-8.35Q485.06-10.65 483.79-11.9 482.51-13.15 479.26-13.85L479.26-13.85 476.86-14.4Q474.36-14.9 472.34-15.8 470.31-16.7 468.89-18.05 467.46-19.4 466.69-21.25 465.91-23.1 465.91-25.6L465.91-25.6Q465.91-27.8 466.71-29.63 467.51-31.45 469.01-32.75 470.51-34.05 472.66-34.77 474.81-35.5 477.51-35.5L477.51-35.5Q480.56-35.5 482.39-34.43 484.21-33.35 484.86-32.1L484.86-32.1 485.06-32.1 485.06-34.9 490.21-34.9 490.21-24.85 485.06-24.85 485.06-27.05Q485.06-29.65 483.26-30.88 481.46-32.1 478.16-32.1L478.16-32.1Q474.71-32.1 473.09-30.63 471.46-29.15 471.46-27L471.46-27Q471.46-24.6 472.96-23.38 474.46-22.15 478.01-21.35L478.01-21.35 480.26-20.9Q485.31-19.75 488.09-17.25 490.86-14.75 490.86-10.15L490.86-10.15Q490.86-7.8 490.01-5.85 489.16-3.9 487.54-2.45 485.91-1 483.61-0.2 481.31 0.6 478.41 0.6ZM495.86 0L495.86-3 499.41-3 499.41-31.9 495.86-31.9 495.86-34.9 509.96-34.9 509.96-31.9 506.41-31.9 506.41-17 506.66-17 512.06-22.95 520.31-31.9 516.66-31.9 516.66-34.9 528.46-34.9 528.46-31.9 524.86-31.9 515.41-21.9 527.11-3 530.26-3 530.26 0 515.71 0 515.71-3 519.01-3 510.61-17.1 506.41-12.7 506.41-3 509.96-3 509.96 0 495.86 0ZM533.31 0L533.31-3 536.86-3 536.86-31.9 533.31-31.9 533.31-34.9 547.41-34.9 547.41-31.9 543.86-31.9 543.86-3 547.41-3 547.41 0 533.31 0ZM551.91 0L551.91-3 555.46-3 555.46-31.9 551.91-31.9 551.91-34.9 579.16-34.9 579.16-25.85 574.01-25.85 574.01-31.65 562.46-31.65 562.46-19.75 570.06-19.75 570.06-23.05 573.51-23.05 573.51-13.2 570.06-13.2 570.06-16.5 562.46-16.5 562.46-3.25 574.41-3.25 574.41-9.85 579.56-9.85 579.56 0 551.91 0Z" opacity="1" transform="matrix(1,0,0,1,0,0)" fill="#ffffff" class="undefined-text-0" data-fill-palette-color="primary" id="text-0"></path></svg></g></svg></g></svg></g></svg></g></svg></g></svg></g></svg></g></svg></g></svg><rect width="395.52" height="247.2" fill="none" stroke="none" visibility="hidden"></rect></g></svg></g></svg>